<svg width="18" height="18" viewBox="0 0 18 18" fill="none" xmlns="http://www.w3.org/2000/svg">
<path d="M16.5789 18C17.3624 18 18 17.3624 18 16.5789V13.2632C18 12.4797 17.3624 11.8421 16.5789 11.8421C15.4705 11.8421 14.3811 11.6678 13.3389 11.3239C13.0898 11.2452 12.8241 11.2357 12.57 11.2962C12.3158 11.3568 12.0829 11.4852 11.8961 11.6678L10.5319 13.032C8.174 11.7519 6.2375 9.81609 4.95663 7.45863L6.30947 6.09726C6.69979 5.73537 6.84 5.18495 6.67326 4.65537C6.33007 3.61165 6.15608 2.51975 6.1579 1.42105C6.1579 0.637579 5.52032 0 4.73684 0H1.42105C0.637579 0 0 0.637579 0 1.42105C0 10.5632 7.43684 18 16.5789 18ZM1.42105 0.947368H4.73684C4.86247 0.947368 4.98295 0.997274 5.07179 1.08611C5.16062 1.17494 5.21053 1.29542 5.21053 1.42105C5.21053 2.63084 5.4 3.81884 5.77232 4.94526C5.79967 5.027 5.80287 5.1149 5.78153 5.19841C5.76019 5.28192 5.71522 5.35751 5.652 5.41611L3.79895 7.27863C5.34979 10.3367 7.64053 12.6275 10.7128 14.1916L12.5593 12.3442C12.6223 12.2819 12.701 12.2378 12.7871 12.2168C12.8733 12.1958 12.9635 12.1986 13.0481 12.2248C14.1812 12.6 15.3692 12.7895 16.5789 12.7895C16.8395 12.7895 17.0526 13.0026 17.0526 13.2632V16.5789C17.0526 16.8395 16.8395 17.0526 16.5789 17.0526C7.95979 17.0526 0.947368 10.0402 0.947368 1.42105C0.947368 1.29542 0.997274 1.17494 1.08611 1.08611C1.17494 0.997274 1.29542 0.947368 1.42105 0.947368Z" fill="#0079C2"/>
</svg>
